<?xml version="1.0" encoding="UTF-8"?>
<svg version="1.1" xmlns="http://www.w3.org/2000/svg" width="175" height="35">
<path d="M0 0 C5.45949074 1.09189815 6.01471081 1.68791562 9 6 C9.33 4.02 9.66 2.04 10 0 C11.32 0 12.64 0 14 0 C14 4.62 14 9.24 14 14 C12.35 14 10.7 14 9 14 C6.6875 11.5 6.6875 11.5 5 9 C4.67 10.65 4.34 12.3 4 14 C2.68 14 1.36 14 0 14 C0 9.38 0 4.76 0 0 Z " fill="#FA9E2F" transform="translate(86,11)"/>
<path d="M0 0 C8.3984375 -0.1953125 8.3984375 -0.1953125 11 0 C13 2 13 2 13.1875 4.4375 C13 7 13 7 12 10 C12.87483915 12.16715557 12.87483915 12.16715557 14 14 C12.02 14 10.04 14 8 14 C7.71125 13.360625 7.4225 12.72125 7.125 12.0625 C6.17176549 9.84793921 6.17176549 9.84793921 4 9 C4 10.65 4 12.3 4 14 C2.68 14 1.36 14 0 14 C0 9.38 0 4.76 0 0 Z M4 3 C4 3.99 4 4.98 4 6 C5.65 5.67 7.3 5.34 9 5 C8.67 4.34 8.34 3.68 8 3 C6.68 3 5.36 3 4 3 Z " fill="#FA9E2F" transform="translate(124,11)"/>
<path d="M0 0 C1.98 0 3.96 0 6 0 C6.83764268 1.95649397 7.66999059 3.91525556 8.5 5.875 C8.9640625 6.96554688 9.428125 8.05609375 9.90625 9.1796875 C11 12 11 12 11 14 C9.35 14 7.7 14 6 14 C6 13.34 6 12.68 6 12 C4.02 12 2.04 12 0 12 C0 12.66 0 13.32 0 14 C-1.65 14 -3.3 14 -5 14 C-3.35 9.38 -1.7 4.76 0 0 Z M3 5 C2.67 6.32 2.34 7.64 2 9 C2.99 8.67 3.98 8.34 5 8 C4.34 7.01 3.68 6.02 3 5 Z " fill="#FA9E2F" transform="translate(146,11)"/>
<path d="M0 0 C1.9375 1.3125 1.9375 1.3125 3 3 C3 3.99 3 4.98 3 6 C1.68 6 0.36 6 -1 6 C-1.33 5.34 -1.66 4.68 -2 4 C-2.99 4 -3.98 4 -5 4 C-5 5.98 -5 7.96 -5 10 C-4.01 10 -3.02 10 -2 10 C-1.67 9.34 -1.34 8.68 -1 8 C0.32 8 1.64 8 3 8 C2.625 10.4375 2.625 10.4375 2 13 C-1.09173752 14.54586876 -3.59429552 14.29359521 -7 14 C-9.4375 12.375 -9.4375 12.375 -11 10 C-11.60605429 6.36367425 -11.47161336 4.71685231 -9.4375 1.625 C-6.1005787 -0.5996142 -3.93094707 -0.50030235 0 0 Z " fill="#FA9E2F" transform="translate(60,11)"/>
<path d="M0 0 C1.9375 1.3125 1.9375 1.3125 3 3 C3 3.99 3 4.98 3 6 C1.68 6 0.36 6 -1 6 C-1.33 5.34 -1.66 4.68 -2 4 C-2.99 4 -3.98 4 -5 4 C-5 5.98 -5 7.96 -5 10 C-4.01 10 -3.02 10 -2 10 C-1.67 9.34 -1.34 8.68 -1 8 C0.32 8 1.64 8 3 8 C2.625 10.4375 2.625 10.4375 2 13 C-1.09173752 14.54586876 -3.59429552 14.29359521 -7 14 C-9.4375 12.375 -9.4375 12.375 -11 10 C-11.60605429 6.36367425 -11.47161336 4.71685231 -9.4375 1.625 C-6.1005787 -0.5996142 -3.93094707 -0.50030235 0 0 Z " fill="#FA9E2F" transform="translate(13,11)"/>
<path d="M0 0 C3.96 0 7.92 0 12 0 C12 0.99 12 1.98 12 3 C9.36 3 6.72 3 4 3 C4 3.66 4 4.32 4 5 C6.31 5 8.62 5 11 5 C11 5.99 11 6.98 11 8 C8.69 8 6.38 8 4 8 C4 8.99 4 9.98 4 11 C6.64 11 9.28 11 12 11 C12 11.99 12 12.98 12 14 C8.04 14 4.08 14 0 14 C0 9.38 0 4.76 0 0 Z " fill="#FA9E2F" transform="translate(69,11)"/>
<path d="M0 0 C1.65 0 3.3 0 5 0 C5.99 2.31 6.98 4.62 8 7 C8.99 4.69 9.98 2.38 11 0 C12.65 0 14.3 0 16 0 C14.35 4.62 12.7 9.24 11 14 C9.02 14 7.04 14 5 14 C3.35 9.38 1.7 4.76 0 0 Z " fill="#FA9E2F" transform="translate(20,11)"/>
<path d="M0 0 C4.95 0 9.9 0 15 0 C15 0.99 15 1.98 15 3 C13.35 3 11.7 3 10 3 C10 6.63 10 10.26 10 14 C8.35 14 6.7 14 5 14 C5 10.37 5 6.74 5 3 C3.35 3 1.7 3 0 3 C0 2.01 0 1.02 0 0 Z " fill="#FA9E2F" transform="translate(104,11)"/>
<path d="M0 0 C1.32 0 2.64 0 4 0 C4 3.63 4 7.26 4 11 C6.64 11 9.28 11 12 11 C12 11.99 12 12.98 12 14 C8.04 14 4.08 14 0 14 C0 9.38 0 4.76 0 0 Z " fill="#FA9E2F" transform="translate(161,11)"/>
</svg>
